Coordinates
version=1
nRows=14
nColumns=24
inDegrees=yes

Units are S.I. units (second, meters, Newtons, ...)
Angles are in degrees.

endheader
time	pelvis_tilt	pelvis_list	pelvis_rotation	pelvis_tx	pelvis_ty	pelvis_tz	hip_flexion_r	hip_adduction_r	hip_rotation_r	knee_angle_r	ankle_angle_r	subtalar_angle_r	mtp_angle_r	hip_flexion_l	hip_adduction_l	hip_rotation_l	knee_angle_l	ankle_angle_l	subtalar_angle_l	mtp_angle_l	lumbar_extension	lumbar_bending	lumbar_rotation
      1.29383333	     -3.45084188	     -1.92279002	     -7.69979283	      0.10570779	      0.95111552	      0.30249348	    -16.08260748	      3.10738618	     -2.06954682	    -11.92451832	     11.28549354	      5.85815591	     12.95543510	     29.03189501	     -2.34361233	     -7.89085677	      0.24569418	      2.84180647	     -4.00255941	      0.82439304	      0.76179030	      5.29822377	     12.17189162
      1.29800000	     -3.54316215	     -1.75521056	     -7.75531280	      0.11204202	      0.95057155	      0.30219573	    -16.07862250	      2.83582642	     -2.14812680	    -12.38949598	     10.95836948	      5.83135940	     13.23107826	     29.09187546	     -2.15934242	     -7.78194109	     -0.13639450	      2.39806798	     -4.65225892	      0.92845386	      0.94603788	      5.12607534	     12.20619652
      1.30216667	     -3.63022545	     -1.55615661	     -7.77847388	      0.11846537	      0.95007614	      0.30187883	    -16.08627461	      2.54356354	     -2.24072597	    -12.83496080	     10.62753369	      5.75818837	     13.73988822	     29.16131725	     -1.93152029	     -7.67181249	     -0.57081002	      1.90227981	     -5.31640560	      1.12414279	      1.15967017	      4.89737137	     12.21877588
      1.30633333	     -3.76547574	     -1.39730173	     -7.81552938	      0.12484516	      0.94958895	      0.30158654	    -16.01742688	      2.30418906	     -2.25919496	    -13.31753466	     10.14752068	      5.63869883	     14.06460204	     29.31646044	     -1.76390208	     -7.60294726	     -1.09976540	      1.38278550	     -5.87494834	      1.24452803	      1.41278299	      4.74233150	     12.23524799
      1.31050000	     -3.83830183	     -1.16465062	     -7.82594077	      0.13133677	      0.94920584	      0.30123038	    -15.99148424	      1.97116770	     -2.39687415	    -13.82715180	      9.64974586	      5.52723304	     18.07059878	     29.40026658	     -1.50043003	     -7.54774492	     -1.62611937	      0.80926005	     -6.48328332	      2.75639597	      1.61069341	      4.48083260	     12.21330129
      1.31466667	     -3.96409067	     -0.96768761	     -7.82964299	      0.13781433	      0.94883029	      0.30089483	    -15.91370537	      1.70676206	     -2.39256350	    -14.32933274	      9.13288049	      5.27006998	     18.11763629	     29.56401627	     -1.28000944	     -7.45054046	     -2.22467576	      0.24195309	     -7.08609149	      2.76116046	      1.87135914	      4.26871215	     12.22396959
      1.31883333	     -4.07726550	     -0.75040975	     -7.81891133	      0.14431921	      0.94851583	      0.30052325	    -15.81608746	      1.41912496	     -2.42802797	    -14.88833747	      8.60225905	      5.03417897	     18.21893153	     29.71565024	     -1.02891193	     -7.32835171	     -2.83266018	     -0.35567740	     -7.73763766	      2.77873389	      2.12186052	      4.02660201	     12.20674736
      1.32300000	     -4.17900426	     -0.51874384	     -7.79505797	      0.15085534	      0.94826810	      0.30013180	    -15.71055595	      1.11940144	     -2.46274205	    -15.47381801	      8.01750665	      4.78442976	     18.36441450	     29.86303982	     -0.75689289	     -7.20422717	     -3.46610994	     -0.95631356	     -8.36894693	      2.80564163	      2.36749194	      3.76052983	     12.18337744
      1.32716667	     -4.28078307	     -0.28506475	     -7.76271872	      0.15739992	      0.94806921	      0.29969497	    -15.57669977	      0.81602943	     -2.50754552	    -16.10448183	      7.39724414	      4.50258258	     18.59226574	     30.01900077	     -0.47571078	     -7.04962941	     -4.12509552	     -1.55888915	     -9.03972513	      2.84648771	      2.60507056	      3.50829098	     12.14360742
      1.33133333	     -4.36424506	     -0.01427068	     -7.70997457	      0.16399272	      0.94794245	      0.29921970	    -15.43169646	      0.47373457	     -2.58017745	    -16.78665080	      6.80587540	      4.17619178	     19.16455384	     30.14824845	     -0.14146974	     -6.85979927	     -4.77502281	     -2.14946660	     -9.76991599	      2.94779209	      2.83427529	      3.18924191	     12.09141686
      1.33550000	     -4.47425283	      0.20944763	     -7.65565063	      0.17055999	      0.94785048	      0.29876658	    -15.25185697	      0.19496615	     -2.58645499	    -17.45700308	      5.98713876	      3.90320425	     19.45837414	     30.35223705	      0.12756863	     -6.78125131	     -5.53403153	     -2.69594320	    -10.21082984	      2.98752401	      3.09072134	      2.94333113	     12.05305041
      1.33966667	     -4.56230657	      0.47584778	     -7.59627313	      0.17713721	      0.94782930	      0.29823830	    -15.03694089	     -0.14167385	     -2.62775871	    -18.23558656	      5.24652949	      3.53079050	     20.03642697	     30.49848529	      0.46228453	     -6.57631065	     -6.22549940	     -3.22001778	    -10.86558052	      3.05660218	      3.30726351	      2.65266738	     11.98227605
      1.34383333	     -4.57514692	      0.77134737	     -7.48569087	      0.18383153	      0.94794527	      0.29766336	    -14.92331046	     -0.51300913	     -2.76147018	    -18.94442357	      4.30366492	      3.21733743	     24.97559043	     30.58705860	      0.84843874	     -6.47277725	     -6.96719591	     -3.72313490	    -11.30619073	      3.54605433	      3.47208181	      2.28729402	     11.92838330
      1.34800000	     -4.67982096	      1.02284364	     -7.40728706	      0.19042463	      0.94800383	      0.29712781	    -14.65076331	     -0.81866219	     -2.74965286	    -19.77118372	      3.43769911	      2.86069158	     25.02255856	     30.80065637	      1.15750218	     -6.39980122	     -7.78186732	     -4.12620270	    -11.65069715	      3.53577610	      3.72723804	      2.00412223	     11.86920165
